# xmcd
#
# Track frame offsets:
#	150
#	17205
#	30600
#	47250
#	62705
#	76400
#	88502
#	106012
#	141070
#	153095
#
# Disc length: 2252 seconds
#
# Revision: 0
# Processed by: cddbd v1.5.2PL0 Copyright (c) Steve Scherf et al.
# Submitted via: audiograbber 1.83.01
#
DISCID=6a08ca0a
DTITLE=David Allen Coe - A Matter Of Life......And Death
DYEAR=1987
DGENRE=Country
TTITLE0=The Ten Commandments Of Love
TTITLE1=Jody Like A Melody
TTITLE2=Tanya Montana
TTITLE3=If Only Your Eyes Could Lie
TTITLE4=Need A Little Time Off For Bad Behavior
TTITLE5=Southern Star
TTITLE6=Actions Speak Louder Than Words
TTITLE7=Child Of God
TTITLE8=Wild Irish Rose
TTITLE9=A Matter Of Life...And Death
EXTD=
EXTT0=
EXTT1=
EXTT2=
EXTT3=
EXTT4=
EXTT5=
EXTT6=
EXTT7=
EXTT8=
EXTT9=
PLAYORDER=
